<?xml version="1.0" encoding="UTF-8" standalone="no"?>
<svg
   width="22"
   height="28"
   viewBox="0 0 11 14"
   version="1.1"
   id="svg12"
   sodipodi:docname="icon-pin.svg"
   inkscape:version="1.2.1 (9c6d41e410, 2022-07-14)"
   xmlns:inkscape="http://www.inkscape.org/namespaces/inkscape"
   xmlns:sodipodi="http://sodipodi.sourceforge.net/DTD/sodipodi-0.dtd"
   xmlns="http://www.w3.org/2000/svg"
   xmlns:svg="http://www.w3.org/2000/svg">
  <defs
     id="defs16" />
  <sodipodi:namedview
     id="namedview14"
     pagecolor="#ffffff"
     bordercolor="#000000"
     borderopacity="0.25"
     inkscape:showpageshadow="2"
     inkscape:pageopacity="0.0"
     inkscape:pagecheckerboard="0"
     inkscape:deskcolor="#d1d1d1"
     showgrid="false"
     inkscape:zoom="36.928571"
     inkscape:cx="1.1779497"
     inkscape:cy="7.0270793"
     inkscape:window-width="1280"
     inkscape:window-height="698"
     inkscape:window-x="-6"
     inkscape:window-y="-6"
     inkscape:window-maximized="1"
     inkscape:current-layer="svg12" />
  <path
     d="M5.49 0A5.496 5.496 0 0 0 0 5.49c0 2.08 1.412 4.261 2.596 5.724.97 1.197 2.54 2.768 2.886 2.797l.051.003c.37 0 2.002-1.69 2.88-2.786 1.17-1.461 2.567-3.644 2.567-5.738A5.496 5.496 0 0 0 5.49 0zm0 8.546a3.147 3.147 0 1 1-.001-6.293 3.147 3.147 0 0 1 0 6.293z"
     id="path10" />
  <path
     style="fill:#000000;stroke-width:0.0270793"
     d="M 5.2631302,13.882319 C 5.0255621,13.728771 4.7556378,13.490942 4.2152218,12.959012 2.7058889,11.473378 1.541677,9.9302162 0.81252602,8.4487427 0.42096031,7.6531677 0.17276393,6.9054835 0.06977416,6.2112248 0.01412185,5.8360701 0.01376157,5.1079666 0.06904063,4.7288138 0.29781114,3.1597028 1.1861264,1.7696765 2.5129151,0.90466511 4.1731306,-0.17772683 6.2854438,-0.27488303 8.03601,0.65062942 9.6456664,1.5016438 10.716695,3.0714202 10.928237,4.8896874 11.086068,6.2462855 10.682746,7.7000352 9.6831401,9.3775702 8.9758268,10.564581 8.0344513,11.746602 6.8519688,12.932481 6.380494,13.405309 6.0305347,13.716538 5.7889152,13.877886 c -0.214744,0.1434 -0.3095386,0.1442 -0.525785,0.0044 z M 6.0270696,8.5010789 C 6.7796871,8.3677212 7.4965397,7.9188525 7.9679985,7.2857346 8.1757644,7.0067276 8.400635,6.5425553 8.493426,6.2011605 8.5610666,5.9522988 8.5671421,5.8886981 8.5684411,5.4158607 8.5700578,4.8268702 8.5333826,4.6254497 8.3404272,4.1636533 8.1209721,3.6384356 7.6609213,3.0826779 7.1844317,2.7671688 5.9320765,1.9379187 4.2613409,2.104887 3.2064923,3.1647122 2.7171384,3.6563749 2.4243327,4.2235029 2.3164784,4.8885582 2.1522741,5.9010796 2.4814661,6.9159198 3.2078065,7.6363636 3.9569624,8.3794381 4.9663405,8.6890312 6.0270696,8.5010789 Z"
     id="path1449" />
  <path
     style="fill:#000000;stroke-width:0.0270793"
     d="M 5.2631302,13.882319 C 5.0293329,13.731208 4.7580988,13.493116 4.2420628,12.986015 1.8758676,10.660789 0.36620152,8.2094551 0.06977416,6.2112248 0.01412185,5.8360701 0.01376157,5.1079666 0.06904063,4.7288138 0.23415853,3.5962889 0.74565979,2.5431441 1.5293643,1.7221112 3.2050465,-0.0333849 5.8279384,-0.48523421 7.9663645,0.61320011 9.539773,1.421405 10.600789,2.8824121 10.903526,4.6576402 c 0.06458,0.378677 0.0648,1.2526586 4.09e-4,1.6247583 -0.243092,1.4048225 -0.9529654,2.8815804 -2.1542697,4.4815525 -0.8782214,1.16967 -2.3200367,2.686083 -2.9607501,3.113935 -0.214744,0.1434 -0.3095386,0.1442 -0.525785,0.0044 z M 5.6945799,8.5428398 C 6.1875299,8.4960939 6.5955037,8.3718521 6.9920297,8.1477224 7.8315513,7.6731969 8.4328927,6.7903477 8.5590067,5.8471915 8.6070448,5.4879337 8.5772917,4.9384217 8.4918305,4.6065132 8.3513063,4.0607533 8.020131,3.5055488 7.5933387,3.1002204 6.1806845,1.7586108 3.8871268,2.0247564 2.8015611,3.6562609 2.2667312,4.4600607 2.1303799,5.4936598 2.4385108,6.4083324 c 0.3975569,1.1801301 1.4536974,2.0132238 2.7065569,2.1349583 0.1117021,0.010854 0.2152805,0.021428 0.2301741,0.023499 0.014894,0.00207 0.1585956,-0.00871 0.3193381,-0.02395 z"
     id="path1451" />
  <path
     style="fill:#2a2aff;stroke-width:0.0270793"
     d="M 5.2299044,13.857834 C 4.6665932,13.4765 3.3717205,12.154224 2.5316884,11.102515 1.2225675,9.4635118 0.42480124,7.9427091 0.11895949,6.5030672 0.02370181,6.054675 -0.00169323,5.2188534 0.06576895,4.7524178 0.23213925,3.6021285 0.73191483,2.5629501 1.5161223,1.7367123 3.1694757,-0.00525402 5.735806,-0.47816835 7.8665377,0.56648005 8.9464303,1.0959263 9.7760391,1.8968018 10.330028,2.9446476 10.71498,3.672767 10.920617,4.4382137 10.957544,5.2804642 11.041762,7.2013373 9.9129394,9.5446766 7.7029365,12.03675 7.2879505,12.504703 6.3719356,13.423602 6.1061211,13.638595 5.6082722,14.041258 5.5298486,14.060881 5.2299044,13.857834 Z M 6.0116054,8.4991308 C 7.2898363,8.2735973 8.3192073,7.2342522 8.5403293,5.9459051 8.7543135,4.699146 8.207946,3.4412471 7.1540509,2.7542836 5.700507,1.8068159 3.7659136,2.2110566 2.7962,3.6648732 2.1447846,4.6414901 2.1057629,5.9440009 2.6970949,6.9729207 c 0.4278123,0.7443952 1.13989,1.2780521 1.9935886,1.4940684 0.4142619,0.1048229 0.8490366,0.1154022 1.3209219,0.032142 z"
     id="path1453" />
  <path
     style="fill:#4f7dfa;stroke-width:0.0270793;fill-opacity:1"
     d="M 5.2631302,13.85524 C 5.0305932,13.704944 4.7614517,13.468123 4.2284574,12.944819 2.0957724,10.85091 0.65694556,8.6345639 0.18924417,6.7228802 0.07383061,6.2511384 0.0462674,5.9409799 0.06155031,5.2859887 0.07277257,4.805028 0.08609277,4.6612361 0.14358825,4.4003868 0.46700556,2.9330867 1.2796258,1.7443114 2.5183752,0.92633126 3.4046871,0.34107542 4.4151467,0.04061896 5.4970986,0.04061896 c 1.1139476,0 2.0947773,0.3035282 3.049672,0.94375354 0.6937431,0.4651317 1.246892,1.0592443 1.6677504,1.7912561 0.490375,0.8529258 0.726305,1.7382885 0.725022,2.7207598 -0.0022,1.6634372 -0.872628,3.604652 -2.5611989,5.7117666 -0.8673376,1.082323 -2.2665797,2.493737 -2.6835757,2.706921 -0.1402102,0.07168 -0.2521696,0.05616 -0.4316382,-0.05984 z M 6.0542743,8.5050046 C 7.3224712,8.2520752 8.3026686,7.2566674 8.5470634,5.973533 8.6101303,5.6424165 8.6042031,5.1091838 8.5337409,4.774941 8.2746781,3.5460608 7.3761383,2.611904 6.1657803,2.313117 5.8476305,2.234579 5.2614656,2.2144432 4.9382985,2.2709507 4.253848,2.3906308 3.694581,2.6749648 3.2126539,3.1482769 2.7740821,3.579009 2.5024908,4.0550133 2.3507195,4.6589463 2.2689511,4.9843214 2.2610955,5.7645896 2.3364634,6.0749501 2.4455513,6.5241674 2.6520835,6.9765818 2.8953728,7.2992556 3.3582723,7.9131986 4.124498,8.3870645 4.860735,8.5147179 c 0.089362,0.015494 0.19294,0.033622 0.2301741,0.040285 0.1241253,0.02221 0.7691687,-0.011267 0.9633652,-0.049998 z"
     id="path1524" />
</svg>
